<svg width="496" height="496" viewBox="0 0 496 496" fill="none" xmlns="http://www.w3.org/2000/svg">
<path d="M248 0C111.252 0 0 111.252 0 248C0 384.748 111.252 496 248 496C384.748 496 496 384.748 496 248C496 111.252 384.748 0 248 0ZM411.97 114.366C441.473 150.412 459.339 196.323 459.805 246.321C452.821 244.844 382.787 230.639 312.303 239.503C306.551 225.462 301.122 213.11 293.686 197.889C372.007 165.912 407.504 120.407 411.97 114.366V114.366ZM388.421 89.87C384.611 95.297 352.724 138.156 277.4 166.389C242.688 102.613 204.215 50.221 198.36 42.381C265.536 26.188 336.326 43.651 388.421 89.87V89.87ZM157.941 56.62C163.526 64.279 201.379 116.736 236.478 179.129C137.391 205.442 50.118 205.063 40.644 204.938C54.38 139.205 98.678 84.573 157.941 56.62ZM36.17 248.323C36.17 246.157 36.213 244.001 36.278 241.85C45.546 242.04 148.198 243.363 253.984 211.704C260.048 223.572 265.841 235.619 271.158 247.653C194.559 269.228 124.964 331.18 90.627 389.959C56.794 352.405 36.17 302.73 36.17 248.323ZM117.977 415.436C140.104 370.203 200.155 311.814 285.556 282.68C315.296 359.963 327.595 424.733 330.745 443.318C262.633 472.331 180.73 464.371 117.977 415.436V415.436ZM366.357 423.925C364.186 411.039 352.911 349.028 325.205 272.892C391.585 262.266 449.905 279.66 457.152 281.947C447.71 340.888 413.879 391.791 366.357 423.925Z" fill="#EA4C89"/>
</svg>
