<svg width="670" height="701" viewBox="0 0 670 701" fill="none" xmlns="http://www.w3.org/2000/svg">
<path d="M591.499 589.878C616.688 577.024 643.228 555.358 650.298 520.01C667.943 431.786 653.33 331.335 577.46 252.016C574.702 249.133 574.265 247.609 574.186 247.334L574.184 247.327C574.074 246.946 573.775 245.718 574.259 242.572C574.794 239.093 576.068 234.554 578.486 227.736C579.094 226.019 580.141 223.197 581.338 219.969C583.266 214.768 585.585 208.514 587.092 204.136C593.373 185.887 599.805 162.139 597.062 134.001C594.281 105.471 582.463 75.9696 558.318 44.8737" stroke="#00F5D2" stroke-width="24" stroke-linecap="round" stroke-linejoin="round"/>
<path d="M610.408 510.95C594.52 590.39 398.19 583.581 398.19 583.581C398.19 583.581 227.858 606.65 88.2713 522.671C-31.6071 450.549 -10.3571 222.697 40.7112 177.303C105.934 119.327 176.477 224.319 237.041 177.303C284.389 140.547 250.623 72.8785 298.323 36.5811C349.462 -2.33307 450.394 -31.5102 525.294 64.9524C608.262 171.805 496.923 222.697 546.856 274.9C612.844 343.888 626.296 431.51 610.408 510.95Z" fill="#DDFFFA"/>
<mask id="mask0" mask-type="alpha" maskUnits="userSpaceOnUse" x="0" y="0" width="617" height="587">
<path d="M610.408 510.95C594.52 590.39 398.19 583.581 398.19 583.581C398.19 583.581 227.858 606.65 88.2713 522.671C-31.6071 450.549 -10.3571 222.697 40.7112 177.303C105.934 119.327 176.477 224.319 237.041 177.303C284.389 140.547 250.623 72.8785 298.323 36.5811C349.462 -2.33307 450.394 -31.5102 525.294 64.9524C608.262 171.805 496.923 222.697 546.856 274.9C612.844 343.888 626.296 431.51 610.408 510.95Z" fill="#FDBEBE"/>
</mask>
<g mask="url(#mask0)">
<circle cx="-12.5887" cy="57" r="20" fill="#92F7E8"/>
<circle cx="67.4113" cy="57" r="20" fill="#92F7E8"/>
<circle cx="147.411" cy="57" r="20" fill="#92F7E8"/>
<circle cx="227.411" cy="57" r="20" fill="#92F7E8"/>
<circle cx="307.411" cy="57" r="20" fill="#92F7E8"/>
<circle cx="387.411" cy="57" r="20" fill="#92F7E8"/>
<circle cx="35.4113" cy="137" r="20" fill="#92F7E8"/>
<circle cx="115.411" cy="137" r="20" fill="#92F7E8"/>
<circle cx="195.411" cy="137" r="20" fill="#92F7E8"/>
<circle cx="275.411" cy="137" r="20" fill="#92F7E8"/>
<circle cx="355.411" cy="137" r="20" fill="#92F7E8"/>
<circle cx="-12.5887" cy="217" r="20" fill="#92F7E8"/>
<circle cx="67.4113" cy="217" r="20" fill="#92F7E8"/>
<circle cx="147.411" cy="217" r="20" fill="#92F7E8"/>
<circle cx="227.411" cy="217" r="20" fill="#92F7E8"/>
<circle cx="307.411" cy="217" r="20" fill="#92F7E8"/>
<circle cx="387.411" cy="217" r="20" fill="#92F7E8"/>
<circle cx="35.4113" cy="297" r="20" fill="#92F7E8"/>
<circle cx="115.411" cy="297" r="20" fill="#92F7E8"/>
<circle cx="195.411" cy="297" r="20" fill="#92F7E8"/>
<circle cx="275.411" cy="297" r="20" fill="#92F7E8"/>
<circle cx="355.411" cy="297" r="20" fill="#92F7E8"/>
<circle cx="-16.5887" cy="377" r="20" fill="#92F7E8"/>
<circle cx="63.4113" cy="377" r="20" fill="#92F7E8"/>
<circle cx="143.411" cy="377" r="20" fill="#92F7E8"/>
<circle cx="223.411" cy="377" r="20" fill="#92F7E8"/>
<circle cx="303.411" cy="377" r="20" fill="#92F7E8"/>
<circle cx="383.411" cy="377" r="20" fill="#92F7E8"/>
<circle cx="31.4113" cy="457" r="20" fill="#92F7E8"/>
<circle cx="111.411" cy="457" r="20" fill="#92F7E8"/>
<circle cx="191.411" cy="457" r="20" fill="#92F7E8"/>
<circle cx="271.411" cy="457" r="20" fill="#92F7E8"/>
<circle cx="351.411" cy="457" r="20" fill="#92F7E8"/>
<circle cx="-16.5887" cy="537" r="20" fill="#92F7E8"/>
<circle cx="63.4113" cy="537" r="20" fill="#92F7E8"/>
<circle cx="143.411" cy="537" r="20" fill="#92F7E8"/>
<circle cx="223.411" cy="537" r="20" fill="#92F7E8"/>
<circle cx="303.411" cy="537" r="20" fill="#92F7E8"/>
<circle cx="383.411" cy="537" r="20" fill="#92F7E8"/>
<circle cx="459.411" cy="57" r="20" fill="#92F7E8"/>
<circle cx="539.411" cy="57" r="20" fill="#92F7E8"/>
<circle cx="619.411" cy="57" r="20" fill="#92F7E8"/>
<circle cx="427.411" cy="137" r="20" fill="#92F7E8"/>
<circle cx="507.411" cy="137" r="20" fill="#92F7E8"/>
<circle cx="587.411" cy="137" r="20" fill="#92F7E8"/>
<circle cx="459.411" cy="217" r="20" fill="#92F7E8"/>
<circle cx="539.411" cy="217" r="20" fill="#92F7E8"/>
<circle cx="619.411" cy="217" r="20" fill="#92F7E8"/>
<circle cx="427.411" cy="297" r="20" fill="#92F7E8"/>
<circle cx="507.411" cy="297" r="20" fill="#92F7E8"/>
<circle cx="587.411" cy="297" r="20" fill="#92F7E8"/>
<circle cx="455.411" cy="377" r="20" fill="#92F7E8"/>
<circle cx="535.411" cy="377" r="20" fill="#92F7E8"/>
<circle cx="615.411" cy="377" r="20" fill="#92F7E8"/>
<circle cx="423.411" cy="457" r="20" fill="#92F7E8"/>
<circle cx="503.411" cy="457" r="20" fill="#92F7E8"/>
<circle cx="583.411" cy="457" r="20" fill="#92F7E8"/>
<circle cx="455.411" cy="537" r="20" fill="#92F7E8"/>
<circle cx="535.411" cy="537" r="20" fill="#92F7E8"/>
<circle cx="615.411" cy="537" r="20" fill="#92F7E8"/>
</g>
<mask id="mask1" mask-type="alpha" maskUnits="userSpaceOnUse" x="15" y="1" width="606" height="607">
<path d="M614 512C598.112 591.44 397 589.5 397 589.5C397 589.5 330.462 596.074 241.63 576.784L214.022 589.892C201.815 598.994 189.188 608.923 179.985 606.054C145.969 595.447 122.906 538.552 89.9205 518.707C-29.958 446.585 19.278 284.967 70.3463 239.573C135.57 181.596 181.065 226.319 241.63 179.303C288.978 142.547 255.211 74.8785 302.912 38.581C354.051 -0.33313 454.983 -29.5103 529.883 66.9523C612.85 173.804 501.512 224.697 551.445 276.9C617.433 345.888 629.888 432.56 614 512Z" fill="#4F4F4F"/>
<path d="M179.985 606.054C145.969 595.447 122.906 538.552 89.9205 518.707C-29.958 446.585 19.278 284.967 70.3463 239.573C135.57 181.596 181.065 226.319 241.63 179.303C288.978 142.547 255.211 74.8785 302.912 38.581C354.051 -0.33313 454.983 -29.5103 529.883 66.9523C612.85 173.804 501.512 224.697 551.445 276.9C617.433 345.888 629.888 432.56 614 512C598.112 591.44 397 589.5 397 589.5C397 589.5 330.462 596.074 241.63 576.784M179.985 606.054C196.922 611.334 225.452 573.271 241.63 576.784M179.985 606.054L241.63 576.784" stroke="black"/>
</mask>
<g mask="url(#mask1)">
<path d="M436.826 326.266V297.854H348.534V326.266C358.025 345.536 385.093 357.251 395.063 357.643C405.033 358.036 427.63 342.875 436.826 326.266Z" fill="#F5C8A1" stroke="#142137" stroke-width="4"/>
<path d="M337.421 279.017C331.311 264.651 331.557 260.141 330.152 244.705C328.496 226.511 328.47 220.413 330.152 197.944C332.584 165.451 354.351 135.393 388.249 135.393C422.148 135.393 447.07 159.077 450.461 191.944C452.406 210.8 451.226 240.454 451.226 240.454C450.907 251.689 450.031 260.798 445.236 279.017C441.169 294.468 427.015 311.697 417.34 320.312C401.996 333.976 380.258 333.673 362.759 318.187C357.18 313.249 343.93 294.32 337.421 279.017Z" fill="#F5C8A1" stroke="#142137" stroke-width="4"/>
<path d="M359.191 237.553C355.794 237.553 353.04 241.182 353.04 245.659C355.859 248.023 362.266 247.685 365.342 245.659C365.342 241.182 362.588 237.553 359.191 237.553Z" fill="#142137"/>
<path d="M424.644 237.987C421.247 237.987 418.493 241.616 418.493 246.092C421.312 248.456 427.719 248.118 430.795 246.092C430.795 241.616 428.041 237.987 424.644 237.987Z" fill="#142137"/>
<path d="M393.171 251.123C393.171 251.123 399.755 266.042 396.463 274.705C393.829 281.636 385.353 274.705 385.353 274.705" stroke="#142137" stroke-width="6" stroke-linecap="round" stroke-linejoin="round"/>
<path d="M378.583 299.358C382.26 307.863 404.046 309.561 404.694 295.511" stroke="#142137" stroke-width="6" stroke-linecap="round" stroke-linejoin="round"/>
<path d="M464.077 228.663C460.6 225.877 455.289 225.357 453.604 232.339L450.108 262.588C455.672 261.481 461.941 259.104 466.5 247.113C469.477 239.281 469.265 232.819 464.077 228.663Z" fill="#F5C8A1"/>
<path d="M453.604 232.339L451.66 231.869L451.631 231.988L451.617 232.109L453.604 232.339ZM464.077 228.663L465.327 227.102L465.327 227.102L464.077 228.663ZM466.5 247.113L464.63 246.402L464.63 246.402L466.5 247.113ZM450.108 262.588L448.122 262.358C448.048 262.993 448.283 263.625 448.753 264.058C449.223 264.491 449.872 264.674 450.499 264.549L450.108 262.588ZM455.548 232.808C456.271 229.815 457.582 228.995 458.561 228.799C459.75 228.561 461.358 229.047 462.826 230.224L465.327 227.102C463.319 225.493 460.533 224.326 457.776 224.877C454.809 225.47 452.623 227.881 451.66 231.869L455.548 232.808ZM462.826 230.224C464.985 231.952 466.086 234.111 466.362 236.72C466.645 239.403 466.06 242.643 464.63 246.402L468.369 247.824C469.918 243.751 470.714 239.844 470.339 236.299C469.957 232.68 468.357 229.529 465.327 227.102L462.826 230.224ZM464.63 246.402C462.444 252.153 459.922 255.409 457.443 257.361C454.968 259.311 452.365 260.1 449.718 260.626L450.499 264.549C453.416 263.969 456.729 263.016 459.919 260.503C463.106 257.992 465.997 254.064 468.369 247.824L464.63 246.402ZM451.617 232.109L448.122 262.358L452.095 262.817L455.591 232.568L451.617 232.109Z" fill="#142137"/>
<path d="M456 250.436C457.466 249.002 458.657 247.294 460.139 242.944C461.23 239.744 461.345 235.748 459.26 233.715" stroke="#CB864A" stroke-width="4" stroke-linecap="round" stroke-linejoin="round"/>
<path d="M316.489 226.143C319.527 223.238 326.784 222.367 328.565 229.998L331.773 262.632C326.705 261.244 318.266 258.664 313.704 245.501C310.724 236.904 311.954 230.477 316.489 226.143Z" fill="#F5C8A1"/>
<path d="M328.565 229.998L330.513 229.544L330.543 229.672L330.555 229.803L328.565 229.998ZM316.489 226.143L317.871 227.589L317.871 227.589L316.489 226.143ZM313.704 245.501L311.814 246.156L311.814 246.156L313.704 245.501ZM331.773 262.632L333.763 262.436C333.828 263.092 333.566 263.736 333.062 264.161C332.559 264.585 331.88 264.735 331.245 264.561L331.773 262.632ZM326.617 230.453C326.243 228.85 325.619 227.839 324.964 227.206C324.312 226.575 323.535 226.226 322.693 226.096C320.923 225.823 318.964 226.543 317.871 227.589L315.107 224.697C317.052 222.838 320.241 221.67 323.304 222.143C324.879 222.386 326.44 223.069 327.745 224.33C329.046 225.589 329.996 227.331 330.513 229.544L326.617 230.453ZM317.871 227.589C314.079 231.213 312.779 236.725 315.593 244.847L311.814 246.156C308.669 237.083 309.83 229.742 315.107 224.697L317.871 227.589ZM315.593 244.847C317.754 251.08 320.777 254.672 323.742 256.877C326.738 259.105 329.805 260.019 332.301 260.703L331.245 264.561C328.673 263.857 324.987 262.788 321.355 260.087C317.693 257.365 314.215 253.085 311.814 246.156L315.593 244.847ZM330.555 229.803L333.763 262.436L329.782 262.828L326.575 230.194L330.555 229.803Z" fill="#142137"/>
<path d="M334.914 218.578C333.297 230.706 328.381 224.486 329.593 244.7C325.551 220.713 318.566 180.793 321.396 156.941C331.269 143.901 332.496 149.125 337.693 139.438C342.891 129.751 338.296 127.651 346.463 117.914C364.38 113.971 441.75 117.496 452.261 125.177C474.126 150.384 452.318 244.7 452.318 244.7C452.318 244.7 454.893 223.092 445.595 217.432C436.297 211.772 447.128 194.726 437.021 178.959C428.936 166.346 404.384 167.567 388.736 169.244C355.204 167.009 350.429 176.877 343.229 186.236C335.144 196.747 336.531 206.45 334.914 218.578Z" fill="#142137"/>
<path d="M453.759 197.844C455.116 184.87 455.781 171.228 454.778 159.331C453.78 147.497 451.173 137.967 446.506 132.371C445.582 131.794 443.771 131.076 440.923 130.333C437.907 129.546 434.066 128.812 429.615 128.145C420.721 126.814 409.598 125.783 398.202 125.112M371.462 125.112C375.608 125.069 386.831 124.236 391.51 125.112" stroke="white" stroke-width="4" stroke-linecap="round" stroke-linejoin="round"/>
<path d="M325.35 249.794C323.739 248.352 322.438 246.625 320.854 242.194C319.689 238.935 319.623 234.842 321.978 232.718" stroke="#CB864A" stroke-width="4" stroke-linecap="round" stroke-linejoin="round"/>
<path fill-rule="evenodd" clip-rule="evenodd" d="M361.063 225.063C368.045 225.647 379.414 228.044 383.218 229.06C387.023 230.077 388.587 230.457 390.522 230.569C392.458 230.681 399.324 229.935 401.248 229.233C405.65 227.626 415.602 225.319 422.011 225.319C427.638 224.902 436.825 226.313 440.85 226.849C444.521 227.338 449.478 227.421 450.337 227.892C451.195 228.362 451.174 228.012 451.657 228.8C452.14 229.588 452.101 233.026 451.593 234.33C451.086 235.634 448.395 234.411 447.733 239.343C447.072 244.274 445.563 251.578 443.714 254.016C443.243 255.274 439.785 258.437 437.225 259.025C432.445 260.121 423.73 260.932 417.29 260.932C413.31 260.932 408.341 260.355 405.807 258.456C402.771 256.181 400.459 251.774 399.502 250.098C398.546 248.422 396.58 242.759 395.769 239.984C394.957 237.209 393.321 237.259 391.427 237.25C389.532 237.241 386.737 237.25 386.321 239.699C385.932 241.98 384.859 245.495 383.82 248.244C382.78 250.992 380.451 255.278 376.547 257.973C373.006 260.417 368.082 260.763 361.063 260.763C354.043 260.763 346.512 260.218 343.209 257.973C341.355 256.714 341.046 256.914 338.806 253.045C336.566 249.176 335.175 241.837 334.56 239.054C333.946 236.27 333.751 235.163 332.703 234.576C331.655 233.99 330.666 233.143 330.114 232.598C329.561 232.053 330.004 227.951 330.544 227.448C331.085 226.944 340.907 225.173 346.512 224.943C350.995 224.76 358.08 224.947 361.063 225.063ZM443.421 231.346C440.854 228.915 428.619 228.429 420.724 228.272C419.267 228.226 415.269 228.382 410.657 229.233C406.045 230.084 402.348 231.779 401 233.411C400.687 233.789 400.44 237.03 401 240.468C401.193 242.931 403.895 251.265 406.31 254.016C409.267 257.386 410.822 256.43 413.067 256.887C418.94 257.73 435.275 255.78 435.275 255.78C435.275 255.78 440.079 255.899 442.619 249.614C443.945 244.925 444.456 238.016 444.276 235.508C443.729 233.462 445.083 232.92 443.421 231.346ZM379.867 231.346C377.3 228.915 366.424 227.825 358.529 227.668C357.072 227.622 348.354 227.668 347.144 227.892C345.933 228.115 339.458 228.193 337.996 230.73C337.684 231.109 337.436 237.03 337.996 240.468C338.189 242.931 339.964 250.293 342.379 253.045C345.337 256.415 348.834 256.29 351.079 256.746C356.952 257.59 367.758 257.935 373.103 256.346C376.409 255.363 378.19 254.114 380.73 247.829C381.983 243.691 381.809 238.076 381.629 235.568C381.362 234.099 380.747 232.179 379.867 231.346Z" fill="#EB5757"/>
<path d="M573.205 476.866L521.81 490.39L528.924 612.606L575.311 605.691C575.311 605.691 574.99 548.758 575.311 531.56C575.709 510.234 573.205 476.866 573.205 476.866Z" fill="#F5C8A1" stroke="#142137" stroke-width="4"/>
<path class= "hand" d="M205 474.5C206.464 469.741 236.722 474.009 253.5 479.5C246.941 495.821 236.311 538.954 231.918 547.007C226.427 557.074 207.853 583.747 196.871 586.493C164.023 594.705 163 580.191 152.943 560.925C142.885 541.66 114.01 471.638 109.499 424.297C106.933 422.212 97.2269 416.262 94.2032 411.896C86.2626 394.649 82.9921 381.669 81.7072 376.247C80.7086 365.895 74.8044 350.966 80.0373 348.246C86.1384 345.076 89.3233 356.825 89.3233 356.825C89.3233 356.825 94.325 375.56 95.6467 375.133C97.8173 374.432 91.8641 355.382 91.8641 355.382C91.8641 355.382 86.2438 334.703 92.6994 333.402C100.156 331.898 104.255 347.695 104.255 347.695C104.255 347.695 107.483 371.701 109.462 370.533C111.441 369.364 107.916 346.362 107.916 346.362C107.916 346.362 106.085 323.932 113.562 323.932C121.039 323.932 120.314 345.398 120.314 345.398C120.314 345.398 120.22 369.275 122.15 369.275C124.079 369.275 125.165 345.398 125.165 345.398C125.165 345.398 124.745 332.528 130.145 332.528C133.372 332.528 134.649 338.92 135.453 345.398C136.982 357.733 131.217 390.044 135.453 389.055C139.688 388.067 143.569 374.818 148.573 372.508C154.827 369.622 159.651 373.405 159.17 378.216C158.689 383.027 155.757 391.353 150.851 398.713C148.343 402.474 140.265 411.896 140.265 411.896C140.265 411.896 186.391 531.73 187.306 524.866C188.221 518.002 203.17 480.449 205 474.5Z" fill="#F5C8A1" stroke="#142137" stroke-width="4" stroke-linecap="round" stroke-linejoin="round"/>
<path d="M436.216 298.691V327.102C427.019 343.712 404.423 358.872 394.453 358.48C384.483 358.087 357.415 346.373 347.924 327.102V298.691C328.188 304.243 307.265 317.568 286.233 327.567C259.942 340.065 239.255 362.477 223.308 393.077C207.362 423.677 194.433 478.894 194.002 488.806C193.657 496.737 234.992 501.468 254.242 498.883C256.397 483.367 262.638 452.218 275.889 427.556C281.457 417.193 276.32 551.824 278.044 626.241H503.388C502.957 549.956 502.354 420.315 503.388 427.556C504.423 434.796 515.948 466.776 516.379 493.497L576.621 482.136C575.615 459.724 569.245 417.902 565.107 393.077C559.936 362.046 533.619 328.704 516.379 320.946C502.588 314.74 459.202 305.73 436.216 298.691Z" fill="#EB5757" stroke="#142137" stroke-width="4" stroke-linecap="round" stroke-linejoin="round"/>
<path d="M438.044 436.356V468.077C438.044 469.983 439.39 471.625 441.26 471.999L452.26 474.199C452.778 474.302 453.311 474.302 453.829 474.199L464.829 471.999C466.699 471.625 468.044 469.983 468.044 468.077V436.356" stroke="#142137" stroke-width="4" stroke-linecap="round" stroke-linejoin="round"/>
<rect x="436.247" y="434.257" width="33.5946" height="9.49209" rx="2" fill="#142137"/>
</g>
<rect x="77.272" y="545.691" width="40" height="40" rx="8" transform="rotate(68.7172 77.272 545.691)" stroke="#56CCF2" stroke-width="12"/>
<rect x="213.818" y="86.6907" width="32" height="32" rx="16" transform="rotate(68.7172 213.818 86.6907)" stroke="#00F5D2" stroke-width="12"/>
<rect x="330.818" y="651.691" width="32" height="32" rx="16" transform="rotate(68.7172 330.818 651.691)" stroke="#F2C94C" stroke-width="12"/>
</svg>
