<svg width="32" height="32" viewBox="0 0 32 32" fill="none" xmlns="http://www.w3.org/2000/svg">
<g clip-path="url(#clip0)">
<rect width="32" height="32" fill="white"/>
<path d="M22.63 5.94L15.16 27H8.74L1.27 5.94H6.73L11.95 21.84L17.2 5.94H22.63ZM27.1741 27.24C26.2741 27.24 25.5341 26.98 24.9541 26.46C24.3941 25.92 24.1141 25.26 24.1141 24.48C24.1141 23.68 24.3941 23.01 24.9541 22.47C25.5341 21.93 26.2741 21.66 27.1741 21.66C28.0541 21.66 28.7741 21.93 29.3341 22.47C29.9141 23.01 30.2041 23.68 30.2041 24.48C30.2041 25.26 29.9141 25.92 29.3341 26.46C28.7741 26.98 28.0541 27.24 27.1741 27.24Z" fill="#142137"/>
</g>
<defs>
<clipPath id="clip0">
<rect width="32" height="32" fill="white"/>
</clipPath>
</defs>
</svg>
