<svg width="256" height="256" viewBox="0 0 256 256" fill="none" xmlns="http://www.w3.org/2000/svg">
<path d="M256 0H0V256H256V0Z" fill="white"/>
<path d="M181.036 47.5195L121.276 216H69.9162L10.1562 47.5195H53.8363L95.5963 174.72L137.596 47.5195H181.036ZM217.389 217.92C210.189 217.92 204.269 215.84 199.629 211.68C195.149 207.36 192.909 202.08 192.909 195.84C192.909 189.44 195.149 184.08 199.629 179.76C204.269 175.44 210.189 173.28 217.389 173.28C224.429 173.28 230.189 175.44 234.669 179.76C239.309 184.08 241.629 189.44 241.629 195.84C241.629 202.08 239.309 207.36 234.669 211.68C230.189 215.84 224.429 217.92 217.389 217.92Z" fill="#142137"/>
</svg>
